<svg xmlns="http://www.w3.org/2000/svg" xmlns:svg="http://www.w3.org/2000/svg" id="svg25597" fill-rule="evenodd" stroke-miterlimit="10" clip-rule="evenodd" version="1.1" viewBox="0 0 466 399"><rect id="rect25516" width="465.509" height="398.005" x=".478" y=".624" fill="none"/><clipPath id="a"><rect id="rect25518" width="465.509" height="398.005" x=".478" y=".624"/></clipPath><g id="g25578" clip-path="url(#a)" transform="translate(-4.5631147,15.210382)" style="stroke:#0050ff;stroke-opacity:1"><path id="path25523" fill="url(#_Linear2)" d="m 451.943,126.065 c 0,-8.279 -6.721,-15 -15,-15 h -278.47 c -8.279,0 -15,6.721 -15,15 v 215.52 c 0,8.279 6.721,15 15,15 h 278.47 c 8.279,0 15,-6.721 15,-15 z" style="fill:#e6e6e6;stroke:#0050ff;stroke-opacity:1"/><path id="path25525" fill="url(#_Linear3)" d="m 158.097,158.194 h 275.859 v 173.532 c 0,5.298 -4.295,9.593 -9.593,9.593 H 171.288 c -7.285,0 -13.191,-5.906 -13.191,-13.191 z" style="fill:url(#_Linear3);stroke:#0050ff;stroke-opacity:1"/><clipPath id="b"><path id="path25527" d="m 158.097,158.194 h 275.859 v 173.532 c 0,5.298 -4.295,9.593 -9.593,9.593 H 171.288 c -7.285,0 -13.191,-5.906 -13.191,-13.191 z"/></clipPath><g id="g25540" clip-path="url(#b)" style="stroke:#0050ff;stroke-opacity:1"><rect id="rect25530" width="35.864" height="40.963" x="172.38" y="170.732" fill="#0bbc00" style="fill:#04a;stroke:#0050ff;stroke-opacity:1"/><rect id="rect25532" width="81.748" height="38.157" x="341.244" y="174.076" fill="#e5f1ff" style="fill:#59f;stroke:#0050ff;stroke-opacity:1"/><rect id="rect25534" width="71.031" height="46.614" x="173.82" y="283.196" fill="#e5f1ff" style="fill:#acf;stroke:#0050ff;stroke-opacity:1"/><rect id="rect25536" width="55.364" height="46.886" x="367.628" y="281.191" fill="url(#_Linear5)" style="fill:#04a;stroke:#0050ff;stroke-opacity:1"/></g><circle id="circle25542" cx="194.543" cy="133.66" r="7.856" fill="#0084ff" style="stroke:#0050ff;stroke-opacity:1"/><circle id="circle25544" cx="171.93" cy="133.66" r="7.856" fill="#55d7ff" style="fill:#fff;stroke:#0050ff;stroke-opacity:1"/><circle id="circle25546" cx="217.087" cy="133.66" r="7.856" fill="#0bbc00" style="fill:#04a;stroke:#0050ff;stroke-opacity:1"/><path id="path25548" fill="#e5f1ff" d="m 385.976,132.409 c 0,-3.588 -2.913,-6.5 -6.5,-6.5 h -76.933 c -3.587,0 -6.5,2.912 -6.5,6.5 v 2.607 c 0,3.588 2.913,6.5 6.5,6.5 h 76.933 c 3.587,0 6.5,-2.912 6.5,-6.5 z m 49.943,-0.056 c 0,-3.614 -2.934,-6.548 -6.548,-6.548 h -11.459 c -3.614,0 -6.548,2.934 -6.548,6.548 v 2.615 c 0,3.614 2.934,6.548 6.548,6.548 h 11.459 c 3.614,0 6.548,-2.934 6.548,-6.548 z" style="fill:#fff;stroke:#0050ff;stroke-opacity:1"/><path id="path25556" fill="#cce6ff" fill-rule="nonzero" d="m 361.927,240.05 v 82.703 H 238.57 v -81.029 l 61.167,-127.9 c 20.73,42.076 41.46,84.151 62.19,126.226 z m -117.357,3.035 v 73.668 H 355.927 V 241.448 L 299.818,127.563 c -18.416,38.507 -36.832,77.015 -55.248,115.522 z" style="fill:#dbe2e3;stroke:#0050ff;stroke-opacity:1"/><path id="path25558" fill="#cce6ff" d="m 40.471,372.646 h -8.8 l 14.081,-58.977 13.201,2.64 v 19.26 h 44.931 v -18.923 l 13.322,-2.627 14.209,58.656 h -8.881 l -18.65,-29.766 v -1.847 H 58.953 v 1.655 z" style="fill:#06f;stroke:#0050ff;stroke-opacity:1"/><rect id="rect25560" width="102.107" height="67.701" x="235.274" y="231.584" fill="#0084ff" style="stroke:#0050ff;stroke-opacity:1"/><path id="path25562" fill="#cce6ff" fill-rule="nonzero" d="M 65.060996,18.993 28.097996,74.449 23.99,74.239 60.068996,15.665 c 1.664,1.109 3.328,2.218 4.992,3.328 z M 278.872,77.988 277.125,83.728 86.09379,20.633108 85.595,13.501 c 64.771,19.71 128.506,44.778 193.277,64.487 z" style="fill:#2a7fff;stroke:#0050ff;stroke-opacity:1"/><path id="path25564" fill="#55d7ff" fill-rule="nonzero" d="m 350.173,225.554 v 86.449 H 222.293 V 227.31 L 285.705,93.537 c 21.489,44.006 42.979,88.012 64.468,132.017 z m -121.88,3.106 v 77.343 h 115.88 V 226.941 L 285.785,107.375 c -19.164,40.428 -38.328,80.857 -57.492,121.285 z M 65.662,86.078 c 0.612,0.147 1.167,0.428 1.652,0.842 l 35.203,35.211 c 1.989,2.33 1.171,2.87 0,4.242 l -31.322,31.328 30.442,30.449 c 0,0 1.768,2.171 0,4.242 l -30.442,30.448 29.562,29.569 c 0,0 1.768,2.171 0,4.242 L 68.194,289.22 c -1.765,1.508 -5.121,0.641 -5.121,-2.121 0,-0.78 0.348,-1.5 0.878,-2.121 L 94.393,254.53 64.831,224.962 c 0,0 -1.768,-2.172 0,-4.243 L 95.273,190.271 64.831,159.823 c 0,0 -1.768,-2.172 0,-4.243 L 96.153,124.252 63.071,91.163 c 0,0 -1.049,-1.279 -0.841,-2.591 0.241,-1.524 1.655,-2.634 3.432,-2.494 z" style="fill:#06f;stroke:#0050ff;stroke-opacity:1"/><path id="path25566" fill="#55d7ff" fill-rule="nonzero" d="m 104.273,93.264 -33.257,33.121 31.487,31.36 c 0.889,1.036 0.775,1.206 0.846,1.655 0.136,0.855 0.161,1.421 -0.846,2.596 l -30.602,30.478 30.602,30.478 c 0,0 1.777,2.178 0,4.251 l -29.717,29.597 30.602,30.478 -4.234,4.251 -32.736,-32.603 c 0,0 -1.778,-2.178 0,-4.251 L 96.135,225.078 65.533,194.599 c 0,0 -1.777,-2.178 0,-4.251 L 96.135,159.87 64.648,128.511 c 0,0 -1.777,-2.178 0,-4.251 l 35.391,-35.248 c 1.411,1.418 2.822,2.835 4.234,4.252 z" style="fill:#59f;stroke:#0050ff;stroke-opacity:1"/><path id="path25570" fill="#cce6ff" fill-rule="nonzero" d="m 86.475,24.064 17.424,50.479 1.937,216.239 H 60.073 V 13.501 h 25.522 c 0.293,3.521 0.586,7.042 0.88,10.563 z M 69.073,22.501 V 281.782 H 96.755 L 94.913,76.092 77.599,25.935 77.313,22.501 c -2.747,0 -5.493,0 -8.24,0 z" style="fill:#dbe2e3;stroke:#0050ff;stroke-opacity:1"/><path id="path25572" fill="#cce6ff" fill-rule="nonzero" d="m 282.586,74.543 18.626,21.702 H 23.99 V 74.239 c 86.199,0.101 172.397,0.203 258.596,0.304 z M 32.99,87.245 H 281.627 L 278.446,83.539 32.99,83.25 c 0,1.331 0,2.663 0,3.995 z" style="fill:#dbe2e3;stroke:#0050ff;stroke-opacity:1"/><path id="path25574" fill="#cce6ff" d="m 122.559,286.849 c 0,-2.207 -1.792,-4 -4,-4 H 41.938 c -1.655,0 -3,1.344 -3,3 v 22.336 c 0,4.968 4.033,9 9,9 h 65.621 c 4.967,0 9,-4.032 9,-9 z" style="fill:#ccc;stroke:#0050ff;stroke-opacity:1"/><path id="path25576" fill="#fff" fill-opacity=".49" d="m 114.244,291.576 c 0,-1.379 -1.121,-2.5 -2.5,-2.5 h -62 c -1.38,0 -2.5,1.121 -2.5,2.5 v 12 c 0,3.036 2.464,5.5 5.5,5.5 h 56 c 3.035,0 5.5,-2.464 5.5,-5.5 z" style="fill:#fff;stroke:#0050ff;stroke-opacity:1"/></g><defs id="defs25595"><linearGradient id="_Linear2" x2="1" gradientTransform="rotate(90 123.454 321.16) scale(318.675)" gradientUnits="userSpaceOnUse"><stop id="stop25580" offset="0" stop-color="#cce6ff"/><stop id="stop25582" offset="1" stop-color="#1d98ff"/></linearGradient><linearGradient id="_Linear3" x2="1" gradientTransform="matrix(0,196.543,-196.543,0,426.588,282.248)" gradientUnits="userSpaceOnUse"><stop id="stop25585" offset="0" stop-color="#fff"/><stop id="stop25587" offset="1" stop-color="#d0e4fc"/></linearGradient><linearGradient id="_Linear5" x2="1" gradientTransform="rotate(-90 358.574 -35.536) scale(76.8497)" gradientUnits="userSpaceOnUse"><stop id="stop25590" offset="0" stop-color="#0bbc00"/><stop id="stop25592" offset="1" stop-color="#79df68"/></linearGradient></defs></svg>