<svg xmlns="http://www.w3.org/2000/svg" xmlns:svg="http://www.w3.org/2000/svg" xmlns:xlink="http://www.w3.org/1999/xlink" id="Layer_1" width="450.678" height="433.043" x="0" y="0" version="1.1" viewBox="0 0 450.678 433.043" xml:space="preserve"><metadata id="metadata188"/><defs id="defs186"><linearGradient id="linearGradient8694" x1="-506.288" x2="490.369" y1="135.105" y2="244.6" gradientUnits="userSpaceOnUse" xlink:href="#linearGradient8692"/><linearGradient id="linearGradient8692"><stop id="stop943" offset="0" style="stop-color:#0684ff;stop-opacity:1"/><stop id="stop945" offset="1" style="stop-color:#0684ff;stop-opacity:0"/></linearGradient><linearGradient id="linearGradient2174" x1="-506.288" x2="490.369" y1="135.105" y2="244.6" gradientUnits="userSpaceOnUse" xlink:href="#linearGradient8692"/><linearGradient id="linearGradient2176" x1="-506.288" x2="490.369" y1="135.105" y2="244.6" gradientUnits="userSpaceOnUse" xlink:href="#linearGradient8692"/><linearGradient id="linearGradient2178" x1="-506.288" x2="490.369" y1="135.105" y2="244.6" gradientUnits="userSpaceOnUse" xlink:href="#linearGradient8692"/><linearGradient id="linearGradient2180" x1="-506.288" x2="490.369" y1="135.105" y2="244.6" gradientUnits="userSpaceOnUse" xlink:href="#linearGradient8692"/><linearGradient id="linearGradient2182" x1="-506.288" x2="490.369" y1="135.105" y2="244.6" gradientUnits="userSpaceOnUse" xlink:href="#linearGradient8692"/><linearGradient id="linearGradient2184" x1="-506.288" x2="490.369" y1="135.105" y2="244.6" gradientUnits="userSpaceOnUse" xlink:href="#linearGradient8692"/><linearGradient id="linearGradient2186" x1="-506.288" x2="490.369" y1="135.105" y2="244.6" gradientUnits="userSpaceOnUse" xlink:href="#linearGradient8692"/></defs><path id="circle151" d="M54.43850999999998,216.44186A172.5825,172.52049 0,1,1 399.60351,216.44186A172.5825,172.52049 0,1,1 54.43850999999998,216.44186" class="DcgXDHXh_0" style="stroke:#06f;stroke-width:5.66929;stroke-miterlimit:4;stroke-opacity:1"/><g id="g263" transform="matrix(0.53103161,0,0,0.50471994,96.595736,91.377159)" style="fill:url(#linearGradient8694);fill-opacity:1;stroke:#06f;stroke-width:6.30032;stroke-miterlimit:4;stroke-dasharray:none;stroke-opacity:1"><g id="g261" style="fill:url(#linearGradient2186);fill-opacity:1;stroke:#06f;stroke-width:6.30032;stroke-miterlimit:4;stroke-dasharray:none;stroke-opacity:1"><g id="g259" style="fill:url(#linearGradient2184);fill-opacity:1;stroke:#06f;stroke-width:6.30032;stroke-miterlimit:4;stroke-dasharray:none;stroke-opacity:1"><path id="polygon249" d="M136.7,367.7L182.1,288.9L136.7,210L45.4,210L0,288.9L45.4,367.7Z" class="DcgXDHXh_1" style="fill:url(#linearGradient2174);fill-opacity:1;stroke:#06f;stroke-width:6.30032;stroke-miterlimit:4;stroke-opacity:1"/><path id="polygon251" d="M335.8,200.3L290,121.5L199.2,121.5L153.7,200.3L199.2,279.2L290,279.2Z" class="DcgXDHXh_2" style="fill:url(#linearGradient2176);fill-opacity:1;stroke:#06f;stroke-width:6.30032;stroke-miterlimit:4;stroke-opacity:1"/><path id="polygon253" d="M290,298.6L199.2,298.6L153.7,377.4L199.2,456.6L290,456.6L335.8,377.4Z" class="DcgXDHXh_3" style="fill:url(#linearGradient2178);fill-opacity:1;stroke:#06f;stroke-width:6.30032;stroke-miterlimit:4;stroke-opacity:1"/><path id="polygon255" d="M45.4,190.6L136.7,190.6L182.1,111.8L136.7,32.6L45.4,32.6L0,111.8Z" class="DcgXDHXh_4" style="fill:url(#linearGradient2180);fill-opacity:1;stroke:#06f;stroke-width:6.30032;stroke-miterlimit:4;stroke-opacity:1"/><path id="polygon257" d="M307.1,111.4L352.5,190.6L443.8,190.6L489.2,111.8L443.8,32.6L352.5,32.6Z" class="DcgXDHXh_5" transform="matrix(1.0040867,0,0,0.99545187,-1.628588,0.50757183)" style="fill:url(#linearGradient2182);fill-opacity:1;stroke:#06f;stroke-width:6.30032;stroke-miterlimit:4;stroke-opacity:1"/></g></g></g><g style="mix-blend-mode:normal;fill:#1a1a1a;fill-opacity:1;stroke:#07f;stroke-width:41.35727584;stroke-miterlimit:4;stroke-dasharray:none;stroke-opacity:1" id="g1489" fill="#000" stroke="none" transform="matrix(0.02689119,0,0,-0.03424314,274.77388,233.08604)"><path style="fill:#1a1a1a;fill-opacity:1;stroke:#07f;stroke-width:41.3573;stroke-miterlimit:4;stroke-opacity:1" id="path1483" d="M 920,410 765,160 H 582 398 l 23,38 c 13,20 36,57 51,82 16,25 25,46 20,48 -5,1 -96,-35 -202,-82 L 98,162 60,102 C 39,69 17,33 11,21 L -1,0 h 483 l 483,1 200,321 c 110,177 202,325 203,330 2,4 -63,8 -145,8 h -148 z" class="DcgXDHXh_6"/><path style="fill:#1a1a1a;fill-opacity:1;stroke:#07f;stroke-width:41.3573;stroke-miterlimit:4;stroke-opacity:1" id="path1485" d="M 1529,573 1333,488 1189,257 C 1110,131 1041,21 1037,13 1030,2 1140,0 1704,0 h 674 l 201,321 c 111,176 201,325 201,330 0,5 -62,9 -144,9 H 2492 L 2345,423 c -81,-131 -153,-244 -160,-251 -8,-9 -41,-12 -118,-10 l -107,3 146,235 c 80,129 148,241 151,248 7,16 -2,13 -224,-85 L 1860,487 1757,324 1655,160 h -113 -112 l 48,78 c 215,342 253,405 250,412 -2,5 -91,-30 -199,-77 z" class="DcgXDHXh_7"/><path style="fill:#1a1a1a;fill-opacity:1;stroke:#07f;stroke-width:41.3573;stroke-miterlimit:4;stroke-opacity:1" id="path1487" d="m 2730,458 c -69,-111 -126,-205 -128,-210 -2,-4 175,-8 392,-8 h 396 l -26,-40 -27,-40 h -388 c -305,0 -389,-3 -389,-12 0,-7 21,-43 46,-81 l 46,-67 h 443 443 l 126,201 c 69,110 126,202 126,205 0,2 -178,4 -395,4 h -395 l 23,38 24,37 387,3 c 447,3 422,-6 340,108 l -45,64 h -437 -437 z" class="DcgXDHXh_8"/></g><style data-made-with="vivus-instant">@keyframes DcgXDHXh_fade{0%,94.44444444444444%{stroke-opacity:1}}@keyframes DcgXDHXh_draw_0{11.11111111111111%{stroke-dashoffset:1086}38.88888888888889%{stroke-dashoffset:0}}@keyframes DcgXDHXh_draw_1{12.847222222222221%{stroke-dashoffset:548}40.625%{stroke-dashoffset:0}}@keyframes DcgXDHXh_draw_2{14.583333333333334%{stroke-dashoffset:548}42.36111111111111%{stroke-dashoffset:0}}@keyframes DcgXDHXh_draw_3{16.319444444444446%{stroke-dashoffset:548}44.09722222222222%{stroke-dashoffset:0}}@keyframes DcgXDHXh_draw_4{18.055555555555554%{stroke-dashoffset:549}45.83333333333333%{stroke-dashoffset:0}}@keyframes DcgXDHXh_draw_5{19.791666666666664%{stroke-dashoffset:549}47.56944444444444%{stroke-dashoffset:0}}@keyframes DcgXDHXh_draw_6{21.52777777777778%{stroke-dashoffset:3795}49.30555555555556%{stroke-dashoffset:0}}@keyframes DcgXDHXh_draw_7{23.26388888888889%{stroke-dashoffset:6382}51.041666666666664%{stroke-dashoffset:0}}@keyframes DcgXDHXh_draw_8{25%{stroke-dashoffset:6394}52.77777777777778%{stroke-dashoffset:0}}.DcgXDHXh_0{stroke-dasharray:1085 1087;stroke-dashoffset:1086;animation:DcgXDHXh_draw_0 7200ms linear 0ms infinite,DcgXDHXh_fade 7200ms linear 0ms infinite}.DcgXDHXh_1{animation:DcgXDHXh_draw_1 7200ms linear 0ms infinite,DcgXDHXh_fade 7200ms linear 0ms infinite}.DcgXDHXh_1,.DcgXDHXh_2,.DcgXDHXh_3{stroke-dasharray:547 549;stroke-dashoffset:548}.DcgXDHXh_2{animation:DcgXDHXh_draw_2 7200ms linear 0ms infinite,DcgXDHXh_fade 7200ms linear 0ms infinite}.DcgXDHXh_3{animation:DcgXDHXh_draw_3 7200ms linear 0ms infinite,DcgXDHXh_fade 7200ms linear 0ms infinite}.DcgXDHXh_4,.DcgXDHXh_5{stroke-dasharray:548 550;stroke-dashoffset:549;animation:DcgXDHXh_draw_4 7200ms linear 0ms infinite,DcgXDHXh_fade 7200ms linear 0ms infinite}.DcgXDHXh_5{animation:DcgXDHXh_draw_5 7200ms linear 0ms infinite,DcgXDHXh_fade 7200ms linear 0ms infinite}.DcgXDHXh_6{stroke-dasharray:3794 3796;stroke-dashoffset:3795;animation:DcgXDHXh_draw_6 7200ms linear 0ms infinite,DcgXDHXh_fade 7200ms linear 0ms infinite}.DcgXDHXh_7{stroke-dasharray:6381 6383;stroke-dashoffset:6382;animation:DcgXDHXh_draw_7 7200ms linear 0ms infinite,DcgXDHXh_fade 7200ms linear 0ms infinite}.DcgXDHXh_8{stroke-dasharray:6393 6395;stroke-dashoffset:6394;animation:DcgXDHXh_draw_8 7200ms linear 0ms infinite,DcgXDHXh_fade 7200ms linear 0ms infinite}</style></svg>